<mxfile host="app.diagrams.net" agent="Mozilla/5.0 (X11; Linux x86_64) AppleWebKit/537.36 (KHTML, like Gecko) Chrome/131.0.0.0 Safari/537.36" version="25.0.3">
  <diagram id="C5RBs43oDa-KdzZeNtuy" name="Page-1">
    <mxGraphModel dx="2363" dy="971" grid="1" gridSize="10" guides="1" tooltips="1" connect="1" arrows="1" fold="1" page="1" pageScale="1" pageWidth="827" pageHeight="1169" math="0" shadow="0">
      <root>
        <mxCell id="WIyWlLk6GJQsqaUBKTNV-0" />
        <mxCell id="WIyWlLk6GJQsqaUBKTNV-1" parent="WIyWlLk6GJQsqaUBKTNV-0" />
        <mxCell id="GAX1AwtSSG1WQY8JN733-1" value="&lt;font&gt;Local tuples&lt;/font&gt;" style="strokeWidth=2;html=1;shape=mxgraph.flowchart.start_1;whiteSpace=wrap;fontSize=24;" vertex="1" parent="WIyWlLk6GJQsqaUBKTNV-1">
          <mxGeometry x="197.5" y="190" width="240" height="60" as="geometry" />
        </mxCell>
        <mxCell id="GAX1AwtSSG1WQY8JN733-12" style="edgeStyle=orthogonalEdgeStyle;rounded=0;orthogonalLoop=1;jettySize=auto;html=1;strokeWidth=2;exitX=0;exitY=0.5;exitDx=0;exitDy=0;exitPerimeter=0;" edge="1" parent="WIyWlLk6GJQsqaUBKTNV-1" source="GAX1AwtSSG1WQY8JN733-2" target="GAX1AwtSSG1WQY8JN733-5">
          <mxGeometry relative="1" as="geometry" />
        </mxCell>
        <mxCell id="GAX1AwtSSG1WQY8JN733-20" style="edgeStyle=orthogonalEdgeStyle;rounded=0;orthogonalLoop=1;jettySize=auto;html=1;exitX=1;exitY=0.5;exitDx=0;exitDy=0;exitPerimeter=0;entryX=0.5;entryY=0;entryDx=0;entryDy=0;strokeWidth=2;" edge="1" parent="WIyWlLk6GJQsqaUBKTNV-1" source="GAX1AwtSSG1WQY8JN733-2" target="GAX1AwtSSG1WQY8JN733-6">
          <mxGeometry relative="1" as="geometry" />
        </mxCell>
        <mxCell id="GAX1AwtSSG1WQY8JN733-2" value="Buffer&lt;div&gt;preparation&lt;/div&gt;" style="strokeWidth=2;html=1;shape=mxgraph.flowchart.decision;whiteSpace=wrap;fontSize=24;" vertex="1" parent="WIyWlLk6GJQsqaUBKTNV-1">
          <mxGeometry x="180" y="280" width="275" height="110" as="geometry" />
        </mxCell>
        <mxCell id="GAX1AwtSSG1WQY8JN733-3" style="edgeStyle=orthogonalEdgeStyle;rounded=0;orthogonalLoop=1;jettySize=auto;html=1;entryX=0.5;entryY=0;entryDx=0;entryDy=0;entryPerimeter=0;strokeWidth=2;" edge="1" parent="WIyWlLk6GJQsqaUBKTNV-1" source="GAX1AwtSSG1WQY8JN733-1" target="GAX1AwtSSG1WQY8JN733-2">
          <mxGeometry relative="1" as="geometry" />
        </mxCell>
        <mxCell id="GAX1AwtSSG1WQY8JN733-14" style="edgeStyle=orthogonalEdgeStyle;rounded=0;orthogonalLoop=1;jettySize=auto;html=1;exitX=0.5;exitY=1;exitDx=0;exitDy=0;entryX=0.5;entryY=0;entryDx=0;entryDy=0;strokeWidth=2;" edge="1" parent="WIyWlLk6GJQsqaUBKTNV-1" source="GAX1AwtSSG1WQY8JN733-5" target="GAX1AwtSSG1WQY8JN733-7">
          <mxGeometry relative="1" as="geometry" />
        </mxCell>
        <mxCell id="GAX1AwtSSG1WQY8JN733-5" value="Sort tuples by destination rank" style="rounded=0;whiteSpace=wrap;html=1;fontSize=24;" vertex="1" parent="WIyWlLk6GJQsqaUBKTNV-1">
          <mxGeometry x="17.5" y="390" width="180" height="60" as="geometry" />
        </mxCell>
        <mxCell id="GAX1AwtSSG1WQY8JN733-15" style="edgeStyle=orthogonalEdgeStyle;rounded=0;orthogonalLoop=1;jettySize=auto;html=1;entryX=0.5;entryY=0;entryDx=0;entryDy=0;strokeWidth=2;" edge="1" parent="WIyWlLk6GJQsqaUBKTNV-1" source="GAX1AwtSSG1WQY8JN733-6" target="GAX1AwtSSG1WQY8JN733-8">
          <mxGeometry relative="1" as="geometry" />
        </mxCell>
        <mxCell id="GAX1AwtSSG1WQY8JN733-6" value="Pass 1: count tuples (atomics)" style="rounded=0;whiteSpace=wrap;html=1;fontSize=24;" vertex="1" parent="WIyWlLk6GJQsqaUBKTNV-1">
          <mxGeometry x="437.5" y="390" width="180" height="60" as="geometry" />
        </mxCell>
        <mxCell id="GAX1AwtSSG1WQY8JN733-16" style="edgeStyle=orthogonalEdgeStyle;rounded=0;orthogonalLoop=1;jettySize=auto;html=1;entryX=0.5;entryY=0;entryDx=0;entryDy=0;strokeWidth=2;" edge="1" parent="WIyWlLk6GJQsqaUBKTNV-1" source="GAX1AwtSSG1WQY8JN733-7" target="GAX1AwtSSG1WQY8JN733-9">
          <mxGeometry relative="1" as="geometry" />
        </mxCell>
        <mxCell id="GAX1AwtSSG1WQY8JN733-7" value="Reduce by&amp;nbsp;&lt;div&gt;join key&lt;/div&gt;" style="rounded=0;whiteSpace=wrap;html=1;fontSize=24;" vertex="1" parent="WIyWlLk6GJQsqaUBKTNV-1">
          <mxGeometry x="17.5" y="480" width="180" height="60" as="geometry" />
        </mxCell>
        <mxCell id="GAX1AwtSSG1WQY8JN733-17" style="edgeStyle=orthogonalEdgeStyle;rounded=0;orthogonalLoop=1;jettySize=auto;html=1;exitX=0.5;exitY=1;exitDx=0;exitDy=0;entryX=0.5;entryY=0;entryDx=0;entryDy=0;strokeWidth=2;" edge="1" parent="WIyWlLk6GJQsqaUBKTNV-1" source="GAX1AwtSSG1WQY8JN733-8" target="GAX1AwtSSG1WQY8JN733-10">
          <mxGeometry relative="1" as="geometry" />
        </mxCell>
        <mxCell id="GAX1AwtSSG1WQY8JN733-8" value="Buffer offset calculation" style="rounded=0;whiteSpace=wrap;html=1;fontSize=24;" vertex="1" parent="WIyWlLk6GJQsqaUBKTNV-1">
          <mxGeometry x="437.5" y="480" width="180" height="60" as="geometry" />
        </mxCell>
        <mxCell id="GAX1AwtSSG1WQY8JN733-9" value="Create sorted send buffer" style="rounded=0;whiteSpace=wrap;html=1;fontSize=24;" vertex="1" parent="WIyWlLk6GJQsqaUBKTNV-1">
          <mxGeometry x="17.5" y="570" width="180" height="60" as="geometry" />
        </mxCell>
        <mxCell id="GAX1AwtSSG1WQY8JN733-50" style="edgeStyle=orthogonalEdgeStyle;rounded=0;orthogonalLoop=1;jettySize=auto;html=1;strokeWidth=2;entryX=0.5;entryY=0;entryDx=0;entryDy=0;entryPerimeter=0;" edge="1" parent="WIyWlLk6GJQsqaUBKTNV-1" source="GAX1AwtSSG1WQY8JN733-10" target="GAX1AwtSSG1WQY8JN733-11">
          <mxGeometry relative="1" as="geometry">
            <mxPoint x="310.00000000000045" y="600" as="targetPoint" />
            <Array as="points">
              <mxPoint x="318" y="600" />
            </Array>
          </mxGeometry>
        </mxCell>
        <mxCell id="GAX1AwtSSG1WQY8JN733-10" value="Pass 2: insert tuples to buffer" style="rounded=0;whiteSpace=wrap;html=1;fontSize=24;" vertex="1" parent="WIyWlLk6GJQsqaUBKTNV-1">
          <mxGeometry x="437.5" y="570" width="180" height="60" as="geometry" />
        </mxCell>
        <mxCell id="GAX1AwtSSG1WQY8JN733-32" style="edgeStyle=orthogonalEdgeStyle;rounded=0;orthogonalLoop=1;jettySize=auto;html=1;strokeWidth=2;exitX=1;exitY=0.5;exitDx=0;exitDy=0;exitPerimeter=0;" edge="1" parent="WIyWlLk6GJQsqaUBKTNV-1" source="GAX1AwtSSG1WQY8JN733-11" target="GAX1AwtSSG1WQY8JN733-24">
          <mxGeometry relative="1" as="geometry" />
        </mxCell>
        <mxCell id="GAX1AwtSSG1WQY8JN733-41" style="edgeStyle=orthogonalEdgeStyle;rounded=0;orthogonalLoop=1;jettySize=auto;html=1;entryX=0.5;entryY=0;entryDx=0;entryDy=0;strokeWidth=2;exitX=0;exitY=0.5;exitDx=0;exitDy=0;exitPerimeter=0;" edge="1" parent="WIyWlLk6GJQsqaUBKTNV-1" source="GAX1AwtSSG1WQY8JN733-11" target="GAX1AwtSSG1WQY8JN733-22">
          <mxGeometry relative="1" as="geometry" />
        </mxCell>
        <mxCell id="GAX1AwtSSG1WQY8JN733-11" value="All-to-all&lt;div&gt;communication&lt;/div&gt;" style="strokeWidth=2;html=1;shape=mxgraph.flowchart.decision;whiteSpace=wrap;fontSize=24;" vertex="1" parent="WIyWlLk6GJQsqaUBKTNV-1">
          <mxGeometry x="180" y="627" width="275" height="130" as="geometry" />
        </mxCell>
        <mxCell id="GAX1AwtSSG1WQY8JN733-18" style="edgeStyle=orthogonalEdgeStyle;rounded=0;orthogonalLoop=1;jettySize=auto;html=1;entryX=0.5;entryY=0;entryDx=0;entryDy=0;entryPerimeter=0;strokeWidth=2;exitX=1;exitY=0.5;exitDx=0;exitDy=0;" edge="1" parent="WIyWlLk6GJQsqaUBKTNV-1" source="GAX1AwtSSG1WQY8JN733-9" target="GAX1AwtSSG1WQY8JN733-11">
          <mxGeometry relative="1" as="geometry" />
        </mxCell>
        <mxCell id="GAX1AwtSSG1WQY8JN733-21" style="edgeStyle=orthogonalEdgeStyle;rounded=0;orthogonalLoop=1;jettySize=auto;html=1;exitX=0;exitY=0.5;exitDx=0;exitDy=0;entryX=0.5;entryY=0;entryDx=0;entryDy=0;strokeWidth=2;" edge="1" parent="WIyWlLk6GJQsqaUBKTNV-1" source="GAX1AwtSSG1WQY8JN733-22" target="GAX1AwtSSG1WQY8JN733-26">
          <mxGeometry relative="1" as="geometry" />
        </mxCell>
        <mxCell id="GAX1AwtSSG1WQY8JN733-36" value="&lt;font color=&quot;#ca1616&quot; style=&quot;font-size: 16px;&quot;&gt;Intra-node&amp;nbsp;&lt;/font&gt;&lt;div&gt;&lt;font color=&quot;#ca1616&quot; style=&quot;font-size: 16px;&quot;&gt;communication&lt;/font&gt;&lt;/div&gt;" style="edgeLabel;html=1;align=center;verticalAlign=middle;resizable=0;points=[];" vertex="1" connectable="0" parent="GAX1AwtSSG1WQY8JN733-21">
          <mxGeometry x="0.0531" y="2" relative="1" as="geometry">
            <mxPoint x="11" y="-3" as="offset" />
          </mxGeometry>
        </mxCell>
        <mxCell id="GAX1AwtSSG1WQY8JN733-22" value="MPI sends GPU buffer" style="rounded=0;whiteSpace=wrap;html=1;fontSize=24;" vertex="1" parent="WIyWlLk6GJQsqaUBKTNV-1">
          <mxGeometry x="17.5" y="738" width="180" height="60" as="geometry" />
        </mxCell>
        <mxCell id="GAX1AwtSSG1WQY8JN733-23" style="edgeStyle=orthogonalEdgeStyle;rounded=0;orthogonalLoop=1;jettySize=auto;html=1;entryX=0.5;entryY=0;entryDx=0;entryDy=0;strokeWidth=2;" edge="1" parent="WIyWlLk6GJQsqaUBKTNV-1" source="GAX1AwtSSG1WQY8JN733-24" target="GAX1AwtSSG1WQY8JN733-28">
          <mxGeometry relative="1" as="geometry" />
        </mxCell>
        <mxCell id="GAX1AwtSSG1WQY8JN733-24" value="Copy GPU buffer to CPU" style="rounded=0;whiteSpace=wrap;html=1;fontSize=24;" vertex="1" parent="WIyWlLk6GJQsqaUBKTNV-1">
          <mxGeometry x="437.5" y="738" width="180" height="60" as="geometry" />
        </mxCell>
        <mxCell id="GAX1AwtSSG1WQY8JN733-26" value="GPUDirect RDMA" style="rounded=0;whiteSpace=wrap;html=1;fontSize=24;" vertex="1" parent="WIyWlLk6GJQsqaUBKTNV-1">
          <mxGeometry x="-50" y="888" width="150" height="60" as="geometry" />
        </mxCell>
        <mxCell id="GAX1AwtSSG1WQY8JN733-27" style="edgeStyle=orthogonalEdgeStyle;rounded=0;orthogonalLoop=1;jettySize=auto;html=1;exitX=0.5;exitY=1;exitDx=0;exitDy=0;entryX=0.5;entryY=0;entryDx=0;entryDy=0;strokeWidth=2;" edge="1" parent="WIyWlLk6GJQsqaUBKTNV-1" source="GAX1AwtSSG1WQY8JN733-28" target="GAX1AwtSSG1WQY8JN733-30">
          <mxGeometry relative="1" as="geometry" />
        </mxCell>
        <mxCell id="GAX1AwtSSG1WQY8JN733-28" value="MPI sends CPU buffer" style="rounded=0;whiteSpace=wrap;html=1;fontSize=24;" vertex="1" parent="WIyWlLk6GJQsqaUBKTNV-1">
          <mxGeometry x="437.5" y="828" width="180" height="60" as="geometry" />
        </mxCell>
        <mxCell id="GAX1AwtSSG1WQY8JN733-30" value="Copy CPU buffer to GPU" style="rounded=0;whiteSpace=wrap;html=1;fontSize=24;" vertex="1" parent="WIyWlLk6GJQsqaUBKTNV-1">
          <mxGeometry x="437.5" y="918" width="180" height="60" as="geometry" />
        </mxCell>
        <mxCell id="GAX1AwtSSG1WQY8JN733-33" value="NVLink" style="rounded=0;whiteSpace=wrap;html=1;fontSize=24;" vertex="1" parent="WIyWlLk6GJQsqaUBKTNV-1">
          <mxGeometry x="150" y="888" width="132.5" height="60" as="geometry" />
        </mxCell>
        <mxCell id="GAX1AwtSSG1WQY8JN733-38" value="&lt;span style=&quot;color: rgb(202, 22, 22); font-size: 16px;&quot;&gt;Sorting approach&lt;/span&gt;" style="edgeLabel;html=1;align=center;verticalAlign=middle;resizable=0;points=[];" vertex="1" connectable="0" parent="WIyWlLk6GJQsqaUBKTNV-1">
          <mxGeometry x="30" y="930" as="geometry">
            <mxPoint x="82" y="-577" as="offset" />
          </mxGeometry>
        </mxCell>
        <mxCell id="GAX1AwtSSG1WQY8JN733-39" value="&lt;span style=&quot;color: rgb(202, 22, 22); font-family: Helvetica; font-size: 16px; font-style: normal; font-variant-ligatures: normal; font-variant-caps: normal; font-weight: 400; letter-spacing: normal; orphans: 2; text-align: center; text-indent: 0px; text-transform: none; widows: 2; word-spacing: 0px; -webkit-text-stroke-width: 0px; white-space: nowrap; background-color: rgb(255, 255, 255); text-decoration-thickness: initial; text-decoration-style: initial; text-decoration-color: initial; display: inline !important; float: none;&quot;&gt;Two-pass approach&lt;/span&gt;" style="text;whiteSpace=wrap;html=1;" vertex="1" parent="WIyWlLk6GJQsqaUBKTNV-1">
          <mxGeometry x="447.5" y="340" width="160" height="40" as="geometry" />
        </mxCell>
        <mxCell id="GAX1AwtSSG1WQY8JN733-40" value="&lt;font color=&quot;#ca1616&quot;&gt;&lt;span style=&quot;font-size: 16px;&quot;&gt;CUDA-AWARE&lt;/span&gt;&lt;/font&gt;&lt;div&gt;&lt;font color=&quot;#ca1616&quot;&gt;&lt;span style=&quot;font-size: 16px;&quot;&gt;MPI&lt;/span&gt;&lt;/font&gt;&lt;/div&gt;" style="edgeLabel;html=1;align=center;verticalAlign=middle;resizable=0;points=[];" vertex="1" connectable="0" parent="WIyWlLk6GJQsqaUBKTNV-1">
          <mxGeometry x="107.5" y="697" as="geometry" />
        </mxCell>
        <mxCell id="GAX1AwtSSG1WQY8JN733-42" style="edgeStyle=orthogonalEdgeStyle;rounded=0;orthogonalLoop=1;jettySize=auto;html=1;exitX=1;exitY=0.5;exitDx=0;exitDy=0;strokeWidth=2;" edge="1" parent="WIyWlLk6GJQsqaUBKTNV-1" source="GAX1AwtSSG1WQY8JN733-22" target="GAX1AwtSSG1WQY8JN733-33">
          <mxGeometry relative="1" as="geometry">
            <mxPoint x="130" y="888" as="sourcePoint" />
            <mxPoint x="70" y="1008" as="targetPoint" />
          </mxGeometry>
        </mxCell>
        <mxCell id="GAX1AwtSSG1WQY8JN733-43" value="&lt;font color=&quot;#ca1616&quot; style=&quot;font-size: 16px;&quot;&gt;Inter-node&amp;nbsp;&lt;/font&gt;&lt;div&gt;&lt;font color=&quot;#ca1616&quot; style=&quot;font-size: 16px;&quot;&gt;communication&lt;/font&gt;&lt;/div&gt;" style="edgeLabel;html=1;align=center;verticalAlign=middle;resizable=0;points=[];" vertex="1" connectable="0" parent="GAX1AwtSSG1WQY8JN733-42">
          <mxGeometry x="0.0531" y="2" relative="1" as="geometry">
            <mxPoint x="-2" y="11" as="offset" />
          </mxGeometry>
        </mxCell>
        <mxCell id="GAX1AwtSSG1WQY8JN733-44" value="&lt;font color=&quot;#ca1616&quot;&gt;&lt;span style=&quot;font-size: 16px;&quot;&gt;CPU Buffer&lt;/span&gt;&lt;/font&gt;&lt;br&gt;&lt;div&gt;&lt;font color=&quot;#ca1616&quot;&gt;&lt;span style=&quot;font-size: 16px;&quot;&gt;MPI&lt;/span&gt;&lt;/font&gt;&lt;/div&gt;" style="edgeLabel;html=1;align=center;verticalAlign=middle;resizable=0;points=[];" vertex="1" connectable="0" parent="WIyWlLk6GJQsqaUBKTNV-1">
          <mxGeometry x="527.5" y="697" as="geometry" />
        </mxCell>
        <mxCell id="GAX1AwtSSG1WQY8JN733-46" value="Distributed tuples" style="strokeWidth=2;html=1;shape=mxgraph.flowchart.terminator;whiteSpace=wrap;fontSize=24;" vertex="1" parent="WIyWlLk6GJQsqaUBKTNV-1">
          <mxGeometry x="197.5" y="970" width="236" height="60" as="geometry" />
        </mxCell>
        <mxCell id="GAX1AwtSSG1WQY8JN733-47" style="edgeStyle=orthogonalEdgeStyle;rounded=0;orthogonalLoop=1;jettySize=auto;html=1;exitX=0.5;exitY=1;exitDx=0;exitDy=0;entryX=0;entryY=0.5;entryDx=0;entryDy=0;entryPerimeter=0;strokeWidth=2;" edge="1" parent="WIyWlLk6GJQsqaUBKTNV-1" source="GAX1AwtSSG1WQY8JN733-26" target="GAX1AwtSSG1WQY8JN733-46">
          <mxGeometry relative="1" as="geometry">
            <mxPoint x="199.5" y="1018" as="targetPoint" />
          </mxGeometry>
        </mxCell>
        <mxCell id="GAX1AwtSSG1WQY8JN733-48" style="edgeStyle=orthogonalEdgeStyle;rounded=0;orthogonalLoop=1;jettySize=auto;html=1;strokeWidth=2;exitX=1;exitY=0.5;exitDx=0;exitDy=0;" edge="1" parent="WIyWlLk6GJQsqaUBKTNV-1" source="GAX1AwtSSG1WQY8JN733-33">
          <mxGeometry relative="1" as="geometry">
            <mxPoint x="317" y="970" as="targetPoint" />
          </mxGeometry>
        </mxCell>
        <mxCell id="GAX1AwtSSG1WQY8JN733-49" style="edgeStyle=orthogonalEdgeStyle;rounded=0;orthogonalLoop=1;jettySize=auto;html=1;entryX=1;entryY=0.5;entryDx=0;entryDy=0;entryPerimeter=0;exitX=0.5;exitY=1;exitDx=0;exitDy=0;strokeWidth=2;" edge="1" parent="WIyWlLk6GJQsqaUBKTNV-1" source="GAX1AwtSSG1WQY8JN733-30" target="GAX1AwtSSG1WQY8JN733-46">
          <mxGeometry relative="1" as="geometry">
            <mxPoint x="435.5" y="1018" as="targetPoint" />
          </mxGeometry>
        </mxCell>
      </root>
    </mxGraphModel>
  </diagram>
</mxfile>
